<svg xmlns="http://www.w3.org/2000/svg" width="192.177" height="193.02" viewBox="0 0 180.166 180.956"><path d="M956.518 158.281c-4.792.104-9.58.687-12.594 1.711-6.258 2.126-12.719 7.495-15.674 13.026-2.011 3.764-2.244 5.83-2.549 22.642-.22 12.165.066 19.836.834 22.4 2.576 8.598 9.252 15.275 18.172 18.172 2.823.917 7.628 1.304 13.826 1.112 14.907-.462 23.361-5.29 28.133-16.065 1.947-4.396 2.324-7.248 2.67-20.213.463-17.36-.62-24.346-4.732-30.468-3.255-4.846-9.6-9.417-15.477-11.153-3.023-.893-7.818-1.268-12.61-1.164m1.324 14.948c4.271.12 8.484 1.608 11.304 4.548l2.887 3.01.283 16.186c.321 18.34-.421 20.864-7.066 24.017-7.217 3.425-16.764 1.324-21.146-4.654-1.887-2.574-2.07-4.222-2.07-18.5 0-13.725.233-16.023 1.89-18.467 2.84-4.19 8.426-6.295 13.918-6.14" style="fill:#0d2a30;fill-opacity:1" transform="translate(-219.782 116.486)scale(.26293)"/><path d="M1231.563 196.837c-8.166-2.458-13.317-8.414-14.667-16.958l-.798-5.046h8.23c8.223 0 8.23.002 9.487 3.038 2.195 5.298 8.534 6.677 13.335 2.901l2.62-2.06.265-29.69.264-29.689h16l.266 29.441c.31 34.439-.2 37.707-6.765 43.327-2.192 1.876-5.729 3.933-7.86 4.572-4.378 1.311-16.248 1.408-20.377.164" style="fill:#0d2a30;fill-opacity:1" transform="translate(-237.731 126.957)scale(.26293)"/><path d="M1249.533 158.238c-8.286-.008-10.267.345-15.498 2.764-7.41 3.427-9.97 5.765-13.318 12.158-2.472 4.719-2.642 5.967-3 22.16-.305 13.779-.057 18.27 1.258 22.791 2.582 8.884 10.564 16.29 20.058 18.612 5.74 1.403 18.11.99 23.635-.791 7.64-2.462 15.136-9.929 17.272-17.203 2.16-7.362 2.235-34.542.115-41.68-2.082-7.01-7.138-12.486-14.71-15.93-5.527-2.514-7.494-2.873-15.812-2.88m.227 15.047c3.357.064 6.723.8 8.963 2.184 5.254 3.247 5.81 5.456 5.81 23.103 0 14.713-.151 16.011-2.168 18.574-1.192 1.516-3.653 3.377-5.468 4.135-7.432 3.105-16.875.87-20.34-4.814-1.79-2.935-2.02-5.03-2.02-18.653 0-16.985.651-19.337 6.319-22.685 2.2-1.3 5.547-1.908 8.904-1.844" style="fill:#0d2a30;fill-opacity:1" transform="translate(-219.782 116.486)scale(.26293)"/><path d="M1540.973 196.35c-5.763-1.8-11.45-5.853-14.516-10.347-2.716-3.98-5.115-11.621-4.144-13.193.333-.537 4.096-.977 8.365-.977 7.753 0 7.762.003 9.19 3.179 2.423 5.382 6.104 7.321 13.9 7.321 8.081 0 11.031-1.872 11.031-7 0-4.69-2.572-6.35-14.678-9.467-13.934-3.589-15.411-4.215-20.264-8.6-8.6-7.77-9.283-21.75-1.483-30.384 11.548-12.782 38.688-11.186 47.957 2.82 1.402 2.118 2.814 5.489 3.14 7.491l.59 3.64h-8.047c-7.462 0-8.182-.184-9.895-2.535-5.693-7.816-22.32-5.952-22.32 2.501 0 4.289 3.51 6.414 15.593 9.442 12.172 3.05 15.581 4.557 20.185 8.927 3.411 3.238 6.227 10.528 6.217 16.097-.017 9.652-6.478 18.15-15.934 20.957-6.522 1.937-18.886 2-24.887.127" style="fill:#0d2a30;fill-opacity:1" transform="translate(-237.731 126.957)scale(.26293)"/><path d="m844.033 159.16-.262 38.75-.261 38.75h19.195c22.944 0 28.412-1.122 35.383-7.258 8.07-7.103 8.882-9.684 9.271-29.486.273-13.884.024-18.192-1.277-22.11-2.326-7.001-7.307-12.306-14.736-15.697-6.292-2.871-6.383-2.882-26.813-2.916zm16.5 15.5h10.631c8.825 0 11.174.335 13.815 1.967 5.372 3.32 6.054 5.758 6.054 21.617 0 16.012-.763 18.192-7.572 21.664-2.57 1.31-5.872 1.75-13.178 1.75l-9.75.002z" style="fill:#0d2a30;fill-opacity:1" transform="translate(-219.782 116.486)scale(.26293)"/><path d="M1087.3 194.583c-1.644-6.88-14.5-72.456-14.5-73.96 0-1.57.975-1.79 7.916-1.79h7.917l.976 4.75c.536 2.613 2.682 14.08 4.768 25.481 2.087 11.402 3.93 20.595 4.095 20.43.166-.166 2.588-7.92 5.383-17.231s6.21-20.665 7.589-25.23l2.507-8.3 5.12.3 5.121.3 7.47 25.25c4.108 13.888 7.599 25.122 7.756 24.964.158-.157 2.336-11.23 4.84-24.606s4.803-24.722 5.107-25.214c.666-1.078 15.123-1.21 15.775-.144.252.413-2.978 17.963-7.178 39l-7.636 38.25h-18.076l-6.378-20.5c-3.508-11.275-6.647-20.491-6.976-20.48s-2.024 4.622-3.769 10.25a8638 8638 0 0 1-6.384 20.48l-3.211 10.25h-8.848c-8.348 0-8.877-.127-9.384-2.25m281.738-36.5.261-38.75 8-.274 8-.274 15.5 24.765 15.5 24.764.268-24.74.267-24.74h15.965v78l-8.25-.005-8.25-.004-15-23.949-15-23.948-.268 23.952-.267 23.952h-16.988zm84.762-.267V118.8l25.75.267 25.75.267v15l-17.25.274-17.25.273v14.901l15.25.276 15.25.276.293 7.25.294 7.25h-31.088v17h35v15h-52z" style="fill:#0d2a30;fill-opacity:1" transform="translate(-237.731 126.957)scale(.26293)"/><path d="M1060.8-252.193V-475.22l122.75.307 122.75.307 10.5 2.63c50.91 12.751 88.25 45.269 106.523 92.765 4.398 11.433 8.433 29.957 9.174 42.122l.604 9.922h-74.18l-.576-4.75c-1.918-15.784-6.896-28.36-15.818-39.954-8.924-11.597-22.35-21-37.228-26.07l-8-2.726-80.75-.284-80.75-.283v298.067h74v74h-149z" style="fill:#13a3d7;fill-opacity:1" transform="translate(-237.731 126.957)scale(.26293)"/><path d="M1265.8-65.871v-36.992l13.25-.673c7.287-.37 16.098-1.342 19.58-2.16 21.378-5.017 42.079-21.363 51.72-40.838 8.063-16.29 7.772-13.721 8.19-72.383l.373-52.25h74.006l-.378 56.75-.377 56.75-2.587 10.5c-7.27 29.51-19.888 52.088-40.79 72.989-16.963 16.964-35.709 28.772-57.83 36.428-16.519 5.718-27.392 7.617-47.408 8.281l-17.75.589z" style="fill:#13a3d7;fill-opacity:1" transform="translate(-237.731 126.957)scale(.26293)"/></svg>
